<svg width="40" height="40" viewBox="0 0 40 40" fill="none" xmlns="http://www.w3.org/2000/svg">
<path d="M2.90278 29.8472C1.30556 29.8472 0 31.1527 0 32.75C0 34.3472 1.30556 35.6527 2.90278 35.6527C4.5 35.6527 5.80556 34.3472 5.80556 32.75C5.80556 31.1527 4.51389 29.8472 2.90278 29.8472Z" fill="#6515DD"/>
<path d="M38.6389 4.5L20.3611 10.3333V4.56944L0.652771 10.8611V27.5694L17.6528 22.1389V27.875L40 20.75L33.9444 14.8333L38.6389 4.5ZM17.6528 19.2778L3.37499 23.8333V12.8472L17.6528 8.29167V19.2778ZM34.9444 19.5139L20.3611 24.1667V13.1944L33.7917 8.90278L30.7083 15.4028L34.9444 19.5139Z" fill="#6515DD"/>
</svg>
