<svg width="40" height="40" viewBox="0 0 40 40" fill="none" xmlns="http://www.w3.org/2000/svg">
<path d="M38.7317 27.9817C39.2195 28.6646 39.122 29.5427 38.5366 30.0305C37.8537 30.5183 36.878 30.4207 36.3902 29.8354L32.9756 25.4451L29.6585 29.7378C29.1707 30.4207 28.1951 30.4207 27.5122 29.9329C26.8293 29.4451 26.7317 28.5671 27.2195 27.8841L31.122 22.811L27.2195 17.7378C26.7317 17.0549 26.9268 16.0793 27.5122 15.5915C28.1951 15.1037 29.1707 15.2988 29.6585 15.8841L32.9756 20.2744L36.3902 16.0793C36.878 15.3963 37.7561 15.2988 38.5366 15.7866C39.2195 16.2744 39.2195 17.25 38.7317 17.9329L34.9268 22.9085L38.7317 27.9817ZM20.9756 27.3963C18.439 27.3963 16.3902 25.4451 16.3902 22.9085C16.3902 20.4695 18.439 18.4207 20.9756 18.4207C23.5122 18.4207 25.561 20.4695 25.561 22.9085C25.4634 25.4451 23.4146 27.3963 20.9756 27.3963ZM7.5122 27.3963C4.97561 27.3963 2.92683 25.4451 2.92683 22.9085C2.92683 20.4695 4.97561 18.4207 7.5122 18.4207C10.0488 18.4207 12.0976 20.4695 12.0976 22.9085C12.0976 25.4451 10.0488 27.3963 7.5122 27.3963ZM20.9756 15.4939C18.1463 15.4939 15.6098 17.0549 14.3415 19.3963C13.0732 17.0549 10.5366 15.4939 7.60976 15.4939C5.85366 15.4939 4.29268 16.0793 3.02439 16.9573V10.7134C3.02439 9.93293 2.34146 9.25 1.56098 9.25C0.682927 9.25 0 9.93293 0 10.7134V23.0061C0.097561 27.1037 3.41463 30.3232 7.5122 30.3232C10.439 30.3232 12.9756 28.6646 14.2439 26.3232C15.5122 28.6646 18.0488 30.3232 20.878 30.3232C25.0732 30.3232 28.4878 27.0061 28.4878 22.811C28.5854 18.811 25.1707 15.4939 20.9756 15.4939Z" fill="#0071F7"/>
</svg>
