<svg width="88" height="88" viewBox="0 0 88 88" fill="none" xmlns="http://www.w3.org/2000/svg">
<path fill-rule="evenodd" clip-rule="evenodd" d="M26.3929 4.12949C29.7771 0.758408 34.6978 -0.560103 39.3142 0.667247L69.8318 8.78096C74.4751 10.0156 78.1044 13.6378 79.3479 18.2787L87.4719 48.598C88.7154 53.2389 87.3835 58.1905 83.9796 61.5813L61.6074 83.8668C58.2232 87.2379 53.3025 88.5564 48.6861 87.3291L47.2441 86.9457L47.2261 86.9409L18.1685 79.2153C13.5252 77.9809 9.896 74.3586 8.6524 69.7177L0.528339 39.3982C-0.715181 34.7573 0.616739 29.8057 4.02069 26.4149L25.4828 5.03588C25.4955 5.0232 25.5083 5.01057 25.521 4.99798L26.3929 4.12949ZM5.6445 36.9169C5.68272 37.2188 5.7386 37.5203 5.81253 37.8197C5.82507 37.8705 5.83812 37.9213 5.8517 37.9719L13.9757 68.2913C14.1788 69.049 14.4897 69.7606 14.8913 70.4089C15.9396 72.1013 17.6059 73.363 19.5845 73.8891L48.6867 81.6265C48.863 81.6723 49.0404 81.7143 49.2187 81.7523C51.4933 82.1589 53.7234 80.7033 54.2324 78.4054L57.3951 64.1262C57.6701 62.885 57.6418 61.5958 57.3128 60.3679L47.3443 23.165C47.0153 21.937 46.3951 20.8065 45.5364 19.869L35.6578 9.08426C34.0707 7.35146 31.4177 7.20356 29.6512 8.68526C29.4958 8.82496 29.344 8.96866 29.1961 9.11606L7.9101 30.3196C6.4984 31.7258 5.69137 33.5875 5.59231 35.5203C5.56857 35.9835 5.5855 36.4508 5.6445 36.9169ZM60.1137 74.923L62.7758 65.318C63.2423 63.2121 63.1943 61.0249 62.6361 58.9415L52.6676 21.7386C52.1094 19.6552 51.0573 17.737 49.6004 16.1465L42.4932 9.16016L56.6806 16.8028C58.7083 17.814 60.2051 19.6462 60.7915 21.8348L69.6236 54.7966C70.2101 56.9853 69.8299 59.3204 68.5795 61.21L60.1137 74.923ZM80.0902 57.6768L72.5667 65.1712L73.1754 64.2513C75.2969 61.0454 75.9419 57.0836 74.947 53.3702L66.1149 20.4085C65.1199 16.6951 62.5804 13.5866 59.1401 11.8709L58.1525 11.3784L68.4157 14.1071C71.1525 14.8347 73.2916 16.9697 74.0246 19.7051L82.1486 50.0244C82.8815 52.7598 82.0965 55.6783 80.0902 57.6768Z" fill="#FFFEF8"/>
</svg>
