<svg width="40" height="40" viewBox="0 0 40 40" fill="none" xmlns="http://www.w3.org/2000/svg">
<path d="M19.9985 38.3417L27.3675 15.6748H12.6403L19.9985 38.3417Z" fill="#E24329"/>
<path d="M2.3188 15.6748L0.0747619 22.5613C-0.128304 23.1866 0.0909933 23.8769 0.626974 24.2667L19.9987 38.3416L2.3188 15.6748Z" fill="#FCA326"/>
<path d="M2.31885 15.675H12.6404L8.19828 2.02381C7.97093 1.3254 6.98013 1.3254 6.7446 2.02381L2.31885 15.675Z" fill="#E24329"/>
<path d="M37.6892 15.6748L39.9252 22.5613C40.1283 23.1866 39.909 23.8769 39.373 24.2667L19.9985 38.3416L37.6892 15.6748Z" fill="#FCA326"/>
<path d="M37.6892 15.675H27.3677L31.8016 2.02381C32.029 1.3254 33.0198 1.3254 33.2553 2.02381L37.6892 15.675Z" fill="#E24329"/>
<path d="M19.9985 38.3416L27.3676 15.6748H37.6892L19.9985 38.3416Z" fill="#FC6D26"/>
<path d="M19.9986 38.3416L2.31885 15.6748H12.6404L19.9986 38.3416Z" fill="#FC6D26"/>
</svg>
