<svg width="40" height="40" viewBox="0 0 40 40" fill="none" xmlns="http://www.w3.org/2000/svg">
<path d="M31.3553 20.9557C26.5804 20.9557 22.7102 24.827 22.7102 29.6026C22.7102 34.3785 26.5804 38.25 31.3553 38.25C36.1296 38.25 40 34.3785 40 29.6026C40 24.827 36.1296 20.9557 31.3553 20.9557ZM8.89489 20.9563C4.12059 20.9563 0.25 24.827 0.25 29.603C0.25 34.3785 4.12059 38.25 8.89489 38.25C13.6695 38.25 17.5402 34.3785 17.5402 29.603C17.5402 24.827 13.6695 20.9563 8.89489 20.9563ZM28.7697 10.1468C28.7697 14.9224 24.8995 18.7946 20.1252 18.7946C15.3505 18.7946 11.4802 14.9224 11.4802 10.1468C11.4802 5.37152 15.3505 1.5 20.1252 1.5C24.8995 1.5 28.7697 5.37152 28.7697 10.1468Z" fill="url(#paint0_radial_1_1691)"/>
<defs>
<radialGradient id="paint0_radial_1_1691" cx="0" cy="0" r="1" gradientUnits="userSpaceOnUse" gradientTransform="translate(20.125 21.5847) scale(26.3397 24.3518)">
<stop stop-color="#FFB900"/>
<stop offset="0.6" stop-color="#F95D8F"/>
<stop offset="0.9991" stop-color="#F95353"/>
</radialGradient>
</defs>
</svg>
