<svg width="197" height="33" viewBox="0 0 197 33" fill="none" xmlns="http://www.w3.org/2000/svg">
<path d="M65.8579 0H49.8579C45.4396 0 41.8579 3.58172 41.8579 8V24C41.8579 28.4183 45.4396 32 49.8579 32H65.8579C70.2762 32 73.8579 28.4183 73.8579 24V8C73.8579 3.58172 70.2762 0 65.8579 0Z" fill="#292929"/>
<path d="M55.0258 9.625C54.2967 9.625 53.6196 9.80729 52.9946 10.1719C52.3826 10.5365 51.8943 11.0312 51.5297 11.6562C51.1652 12.2682 50.9829 12.9388 50.9829 13.668V19.332C50.9829 20.0612 51.1652 20.7383 51.5297 21.3633C51.8943 21.9753 52.3826 22.4635 52.9946 22.8281C53.6196 23.1927 54.2967 23.375 55.0258 23.375H60.6899C61.4191 23.375 62.0896 23.1927 62.7016 22.8281C63.3266 22.4635 63.8214 21.9753 64.186 21.3633C64.5506 20.7383 64.7329 20.0612 64.7329 19.332V13.668C64.7329 12.9388 64.5506 12.2682 64.186 11.6562C63.8214 11.0312 63.3266 10.5365 62.7016 10.1719C62.0896 9.80729 61.4191 9.625 60.6899 9.625H55.0258ZM55.0258 10.875H60.6899C61.1977 10.875 61.6665 10.9987 62.0962 11.2461C62.5258 11.4935 62.8644 11.832 63.1118 12.2617C63.3592 12.6914 63.4829 13.1602 63.4829 13.668V19.332C63.4829 19.8398 63.3592 20.3086 63.1118 20.7383C62.8644 21.168 62.5258 21.5065 62.0962 21.7539C61.6665 22.0013 61.1977 22.125 60.6899 22.125H55.0258C54.518 22.125 54.0493 22.0013 53.6196 21.7539C53.1899 21.5065 52.8514 21.168 52.604 20.7383C52.3566 20.3086 52.2329 19.8398 52.2329 19.332V13.668C52.2329 13.1602 52.3566 12.6914 52.604 12.2617C52.8514 11.832 53.1899 11.4935 53.6196 11.2461C54.0493 10.9987 54.518 10.875 55.0258 10.875ZM61.5493 12.2422C61.393 12.2422 61.2563 12.3008 61.1391 12.418C61.035 12.5221 60.9829 12.6523 60.9829 12.8086C60.9829 12.9648 61.035 13.1016 61.1391 13.2188C61.2563 13.3229 61.393 13.375 61.5493 13.375C61.7055 13.375 61.8357 13.3229 61.9399 13.2188C62.0571 13.1016 62.1157 12.9648 62.1157 12.8086C62.1157 12.6523 62.0571 12.5221 61.9399 12.418C61.8357 12.3008 61.7055 12.2422 61.5493 12.2422ZM57.8579 12.75C57.1808 12.75 56.5558 12.9193 55.9829 13.2578C55.41 13.5964 54.9542 14.0521 54.6157 14.625C54.2771 15.1979 54.1079 15.8229 54.1079 16.5C54.1079 17.1771 54.2771 17.8021 54.6157 18.375C54.9542 18.9479 55.41 19.4036 55.9829 19.7422C56.5558 20.0807 57.1808 20.25 57.8579 20.25C58.535 20.25 59.16 20.0807 59.7329 19.7422C60.3058 19.4036 60.7615 18.9479 61.1001 18.375C61.4386 17.8021 61.6079 17.1771 61.6079 16.5C61.6079 15.8229 61.4386 15.1979 61.1001 14.625C60.7615 14.0521 60.3058 13.5964 59.7329 13.2578C59.16 12.9193 58.535 12.75 57.8579 12.75ZM57.8579 14C58.3136 14 58.7303 14.1107 59.1079 14.332C59.4985 14.5534 59.8045 14.8594 60.0258 15.25C60.2472 15.6276 60.3579 16.0443 60.3579 16.5C60.3579 16.9557 60.2472 17.3789 60.0258 17.7695C59.8045 18.1471 59.4985 18.4466 59.1079 18.668C58.7303 18.8893 58.3136 19 57.8579 19C57.4021 19 56.979 18.8893 56.5883 18.668C56.2107 18.4466 55.9113 18.1471 55.6899 17.7695C55.4685 17.3789 55.3579 16.9557 55.3579 16.5C55.3579 16.0443 55.4685 15.6276 55.6899 15.25C55.9113 14.8594 56.2107 14.5534 56.5883 14.332C56.979 14.1107 57.4021 14 57.8579 14Z" fill="#BFBFBF"/>
<path d="M147.858 0H131.858C127.44 0 123.858 3.58172 123.858 8V24C123.858 28.4183 127.44 32 131.858 32H147.858C152.276 32 155.858 28.4183 155.858 24V8C155.858 3.58172 152.276 0 147.858 0Z" fill="#292929"/>
<path d="M137.866 8.99986C137.671 8.98684 137.482 9.01939 137.299 9.09752C137.117 9.16262 136.961 9.26679 136.831 9.41002C136.713 9.55325 136.622 9.7095 136.557 9.87877C136.453 10.1522 136.408 10.4778 136.421 10.8554C136.434 11.4153 136.564 12.1379 136.811 13.0233C136.941 13.5051 137.117 14.052 137.338 14.664C137.247 14.6509 137.143 14.6444 137.026 14.6444C136.805 14.6575 136.59 14.7291 136.381 14.8593C136.147 15.0155 135.952 15.2108 135.796 15.4452C135.652 15.6666 135.568 15.9009 135.542 16.1483C135.503 16.4869 135.561 16.871 135.717 17.3007C135.34 17.3397 135.034 17.47 134.799 17.6913C134.422 18.0559 134.233 18.6028 134.233 19.3319C134.233 20.3606 134.48 21.246 134.975 21.9882C135.405 22.6262 135.971 23.108 136.674 23.4335C137.208 23.6809 137.807 23.8437 138.471 23.9218C138.823 23.9739 139.24 23.9999 139.721 23.9999H139.76C140.919 23.9999 141.909 23.72 142.729 23.1601C143.367 22.7304 143.868 22.1249 144.233 21.3437C144.65 20.4582 144.858 19.397 144.858 18.1601V18.0429C144.884 17.7173 144.878 17.4309 144.838 17.1835C144.773 16.7538 144.624 16.3762 144.389 16.0507C144.272 15.8944 144.096 15.7252 143.862 15.5429C144.135 14.6314 144.357 13.759 144.526 12.9257C144.708 12.0142 144.793 11.2851 144.78 10.7382C144.767 10.3476 144.715 10.0351 144.624 9.80064C144.559 9.63137 144.454 9.48163 144.311 9.35142C144.168 9.20819 144.005 9.11705 143.823 9.07798C143.432 8.98684 143.055 9.04543 142.69 9.25377C142.417 9.41002 142.156 9.65741 141.909 9.99595C141.531 10.5168 141.199 11.2134 140.913 12.0858C140.874 12.216 140.815 12.4114 140.737 12.6718L140.698 12.8476C140.581 12.522 140.463 12.216 140.346 11.9296C139.969 11.0311 139.591 10.341 139.213 9.85924C138.953 9.53371 138.686 9.29934 138.413 9.15611C138.23 9.06496 138.048 9.01288 137.866 8.99986ZM137.768 10.2304C137.781 10.2304 137.794 10.2369 137.807 10.2499L137.846 10.2694C137.95 10.3215 138.081 10.4452 138.237 10.6405C138.549 11.0442 138.862 11.6301 139.174 12.3983C139.5 13.1535 139.767 13.8957 139.975 14.6249H139.936C139.728 14.6249 139.526 14.664 139.331 14.7421C139.135 14.8202 138.966 14.9309 138.823 15.0741C138.497 14.2668 138.224 13.4791 138.003 12.7108C137.794 11.9426 137.684 11.3176 137.671 10.8358C137.658 10.6145 137.677 10.4387 137.729 10.3085L137.768 10.2304ZM143.393 10.328C143.419 10.328 143.445 10.328 143.471 10.328C143.51 10.4582 143.53 10.6015 143.53 10.7577C143.543 11.1874 143.465 11.8254 143.296 12.6718C143.152 13.4009 142.963 14.1692 142.729 14.9765C142.365 14.8593 141.967 14.7746 141.538 14.7226C141.681 13.9543 141.87 13.2056 142.104 12.4765C142.352 11.7082 142.618 11.1288 142.905 10.7382C143.048 10.5429 143.178 10.4127 143.296 10.3476C143.322 10.3345 143.354 10.328 143.393 10.328ZM139.936 15.8749C140.978 15.8749 141.805 15.9791 142.417 16.1874C142.872 16.3437 143.198 16.552 143.393 16.8124C143.497 16.9556 143.569 17.1249 143.608 17.3202C143.621 17.4374 143.621 17.6197 143.608 17.8671V18.1601C143.608 19.2408 143.445 20.1262 143.12 20.8163C142.872 21.3632 142.508 21.7994 142.026 22.1249C141.414 22.5416 140.659 22.7499 139.76 22.7499C138.706 22.7499 137.853 22.6002 137.202 22.3007C136.655 22.0533 136.251 21.7343 135.991 21.3437C135.652 20.8358 135.483 20.1653 135.483 19.3319C135.483 19.1236 135.509 18.9478 135.561 18.8046C135.587 18.7004 135.62 18.6288 135.659 18.5897C135.711 18.5377 135.763 18.5116 135.815 18.5116C135.867 18.4986 135.945 18.5051 136.049 18.5311C136.258 18.5832 136.505 18.72 136.792 18.9413C137.117 19.2017 137.423 19.5207 137.71 19.8983C137.84 20.0676 137.977 20.2759 138.12 20.5233C138.094 20.5494 138.055 20.5754 138.003 20.6015C137.963 20.6275 137.924 20.6405 137.885 20.6405C137.781 20.6405 137.658 20.5819 137.514 20.4647C137.384 20.3345 137.195 20.0806 136.948 19.703L135.893 20.3866C136.18 20.8293 136.447 21.1614 136.694 21.3827C137.072 21.7213 137.469 21.8905 137.885 21.8905C138.12 21.8905 138.341 21.845 138.549 21.7538C138.758 21.6496 138.934 21.5064 139.077 21.3241C139.116 21.2851 139.148 21.2134 139.174 21.1093L139.213 20.9921C139.318 21.2785 139.422 21.4999 139.526 21.6561C139.63 21.8124 139.76 21.9556 139.917 22.0858L140.112 22.2421L140.796 21.2069L140.737 21.1679C140.685 21.1158 140.626 21.0442 140.561 20.953C140.366 20.6666 140.268 20.302 140.268 19.8593C140.268 19.664 140.301 19.5012 140.366 19.371C140.457 19.2017 140.633 19.0325 140.893 18.8632C141.036 18.772 141.199 18.6939 141.381 18.6288L141.596 18.5702C141.74 18.5442 141.857 18.4791 141.948 18.3749C142.039 18.2577 142.085 18.1275 142.085 17.9843C142.085 17.841 142.046 17.7108 141.967 17.5937C141.889 17.4765 141.779 17.3983 141.635 17.3593L139.858 16.8319C139.806 16.8189 139.76 16.7929 139.721 16.7538L139.682 16.7147L139.604 16.578C139.565 16.4869 139.552 16.3827 139.565 16.2655C139.578 16.1483 139.617 16.0572 139.682 15.9921C139.747 15.914 139.832 15.8749 139.936 15.8749ZM137.046 15.8944C137.059 15.8814 137.072 15.8814 137.085 15.8944L137.221 15.9335C137.404 15.9986 137.612 16.1548 137.846 16.4022C138.094 16.6366 138.335 16.9491 138.569 17.3397C138.816 17.7173 139.025 18.1145 139.194 18.5311C139.246 18.6744 139.259 18.772 139.233 18.8241C139.207 18.8762 139.135 18.9283 139.018 18.9804C138.914 19.0325 138.797 19.0585 138.667 19.0585C138.641 19.0585 138.621 19.052 138.608 19.039C138.556 18.9999 138.562 18.9999 138.628 19.039C138.641 19.065 138.667 19.0976 138.706 19.1366L138.667 19.1561C138.276 18.6223 137.885 18.2056 137.495 17.9061L137.28 17.6132C137.111 17.3788 136.987 17.1575 136.909 16.9491C136.805 16.7017 136.766 16.4804 136.792 16.2851C136.805 16.1939 136.824 16.1223 136.85 16.0702C136.876 16.0181 136.941 15.9595 137.046 15.8944Z" fill="#BFBFBF"/>
<path d="M24.8579 0H8.85791C4.43963 0 0.85791 3.58172 0.85791 8V24C0.85791 28.4183 4.43963 32 8.85791 32H24.8579C29.2762 32 32.8579 28.4183 32.8579 24V8C32.8579 3.58172 29.2762 0 24.8579 0Z" fill="#292929"/>
<path d="M18.8892 7.75C17.6262 7.75 16.6692 8.08854 16.0181 8.76562C15.328 9.48177 14.983 10.5625 14.983 12.0078V14.625H11.858V17.75H14.983V25.25H18.108V17.75H20.608L21.233 14.625H18.108V12.5352C18.108 11.9622 18.2121 11.5456 18.4205 11.2852C18.6418 11.0117 19.0064 10.875 19.5142 10.875H21.233V7.88672C20.595 7.79557 19.8137 7.75 18.8892 7.75Z" fill="#BFBFBF"/>
<path d="M188.858 0H172.858C168.44 0 164.858 3.58172 164.858 8V24C164.858 28.4183 168.44 32 172.858 32H188.858C193.276 32 196.858 28.4183 196.858 24V8C196.858 3.58172 193.276 0 188.858 0Z" fill="#292929"/>
<path d="M176.268 9C175.812 9 175.422 9.16276 175.096 9.48828C174.771 9.80078 174.608 10.1914 174.608 10.6602C174.608 11.1159 174.771 11.5065 175.096 11.832C175.422 12.1576 175.806 12.3203 176.249 12.3203C176.704 12.3203 177.095 12.1576 177.421 11.832C177.746 11.5065 177.909 11.1159 177.909 10.6602C177.909 10.2044 177.746 9.8138 177.421 9.48828C177.108 9.16276 176.724 9 176.268 9ZM184.315 13.375C183.677 13.375 183.124 13.5247 182.655 13.8242C182.277 14.0716 181.978 14.4036 181.756 14.8203H181.717V13.5703H178.983V22.75H181.835V18.1992C181.835 17.7044 181.861 17.3268 181.913 17.0664C181.991 16.6758 182.134 16.3828 182.342 16.1875C182.59 15.9661 182.941 15.8555 183.397 15.8555C183.853 15.8555 184.198 15.9857 184.432 16.2461C184.628 16.4544 184.758 16.7669 184.823 17.1836C184.862 17.431 184.881 17.7956 184.881 18.2773V22.75H187.733V17.7109C187.733 16.7865 187.648 16.0443 187.479 15.4844C187.284 14.8073 186.952 14.293 186.483 13.9414C185.962 13.5638 185.24 13.375 184.315 13.375ZM174.842 13.5703V22.75H177.694V13.5703H174.842Z" fill="#BFBFBF"/>
<path d="M106.858 0H90.8579C86.4396 0 82.8579 3.58172 82.8579 8V24C82.8579 28.4183 86.4396 32 90.8579 32H106.858C111.276 32 114.858 28.4183 114.858 24V8C114.858 3.58172 111.276 0 106.858 0Z" fill="#292929"/>
<path d="M106.358 11.8516C105.798 12.099 105.212 12.2617 104.6 12.3398C104.913 12.1445 105.186 11.9036 105.42 11.6172C105.655 11.3177 105.831 10.9858 105.948 10.6212C105.336 10.9858 104.685 11.2396 103.995 11.3828C103.708 11.0703 103.37 10.8294 102.979 10.6602C102.588 10.4909 102.178 10.4062 101.749 10.4062C101.189 10.4062 100.674 10.543 100.206 10.8164C99.7368 11.0898 99.3592 11.4674 99.0727 11.9492C98.7993 12.418 98.6626 12.9258 98.6626 13.4727C98.6626 13.7201 98.6886 13.9544 98.7407 14.1758C97.4907 14.1237 96.3058 13.8047 95.186 13.2188C94.1053 12.6719 93.1743 11.9232 92.393 10.9727C92.1196 11.4414 91.9829 11.9557 91.9829 12.5156C91.9829 13.0365 92.1066 13.5247 92.354 13.9805C92.6014 14.4362 92.9334 14.8008 93.3501 15.0742C92.8553 15.0612 92.393 14.931 91.9634 14.6837V14.7227C91.9634 15.4648 92.1977 16.1224 92.6665 16.6953C93.1352 17.2552 93.7212 17.6068 94.4243 17.75C94.1639 17.8151 93.8969 17.8477 93.6235 17.8477C93.4282 17.8477 93.2329 17.8346 93.0376 17.8086C93.2329 18.4206 93.5909 18.9285 94.1118 19.3321C94.6456 19.7228 95.2446 19.9246 95.9087 19.9375C95.3748 20.3542 94.7824 20.6798 94.1313 20.9142C93.4803 21.1484 92.8032 21.2656 92.1001 21.2656C91.8527 21.2527 91.6053 21.2332 91.3579 21.2071C92.048 21.6498 92.7902 21.9883 93.5844 22.2227C94.3917 22.4701 95.2185 22.5938 96.0649 22.5938C97.4321 22.5938 98.6886 22.3268 99.8344 21.793C100.876 21.3112 101.788 20.6277 102.569 19.7423C103.298 18.922 103.864 17.9845 104.268 16.9298C104.646 15.9011 104.834 14.8724 104.834 13.8438L104.815 13.4337C105.427 13.004 105.941 12.4766 106.358 11.8516Z" fill="#BFBFBF"/>
</svg>
