<svg width="616" height="41" viewBox="0 0 616 41" fill="none" xmlns="http://www.w3.org/2000/svg">
<g clip-path="url(#clip0_1_1680)">
<path d="M18.9474 0H0V18.9464H18.9474V0Z" fill="#F25022"/>
<path d="M18.9474 21.0537H0V40.0001H18.9474V21.0537Z" fill="#00A4EF"/>
<path d="M39.9999 0H21.0525V18.9464H39.9999V0Z" fill="#7FBA00"/>
<path d="M39.9999 21.0537H21.0525V40.0001H39.9999V21.0537Z" fill="#FFB900"/>
</g>
<g clip-path="url(#clip1_1_1680)">
<path d="M217.457 12.8913L218.739 12.913L222.217 9.43478L222.391 7.95652C219.63 5.5 215.978 4 212 4C204.783 4 198.696 8.91304 196.891 15.5652C197.283 15.3043 198.087 15.5 198.087 15.5L205.043 14.3478C205.043 14.3478 205.413 13.7609 205.587 13.7826C207.174 12.0435 209.457 10.9565 212 10.9565C214.065 10.9565 215.957 11.6739 217.457 12.8913Z" fill="#EA4335"/>
<path d="M227.109 15.5652C226.304 12.587 224.63 9.95654 222.391 7.95654L217.457 12.8913C219.435 14.4783 220.696 16.9131 220.696 19.6522V20.5218C223.087 20.5218 225.043 22.4783 225.043 24.8696C225.043 27.2609 223.087 29.2174 220.696 29.2174H212L211.13 30.087V35.3044L212 36.1739H220.696C226.935 36.1739 232 31.1087 232 24.8696C232 21.0218 230.065 17.6087 227.109 15.5652Z" fill="#4285F4"/>
<path d="M203.304 36.1736H212V29.217H203.304C202.674 29.217 202.065 29.0649 201.522 28.8257L200.261 29.217L196.783 32.6953L196.478 33.8692C198.37 35.304 200.739 36.1736 203.304 36.1736Z" fill="#34A853"/>
<path d="M203.304 13.5654C197.065 13.5654 192 18.6306 192 24.8697C192 28.5436 193.761 31.8045 196.478 33.8697L201.522 28.8263C200 28.1523 198.957 26.6306 198.957 24.8697C198.957 22.4784 200.913 20.5219 203.304 20.5219C205.065 20.5219 206.587 21.5654 207.261 23.0871L212.304 18.0436C210.239 15.3263 206.978 13.5654 203.304 13.5654Z" fill="#FBBC05"/>
</g>
<path d="M415.355 20.9557C410.58 20.9557 406.71 24.827 406.71 29.6026C406.71 34.3785 410.58 38.25 415.355 38.25C420.13 38.25 424 34.3785 424 29.6026C424 24.827 420.13 20.9557 415.355 20.9557ZM392.895 20.9563C388.121 20.9563 384.25 24.827 384.25 29.603C384.25 34.3785 388.121 38.25 392.895 38.25C397.67 38.25 401.54 34.3785 401.54 29.603C401.54 24.827 397.67 20.9563 392.895 20.9563ZM412.77 10.1468C412.77 14.9224 408.899 18.7946 404.125 18.7946C399.351 18.7946 395.48 14.9224 395.48 10.1468C395.48 5.37152 399.351 1.5 404.125 1.5C408.899 1.5 412.77 5.37152 412.77 10.1468Z" fill="url(#paint0_radial_1_1680)"/>
<path d="M578.903 29.8472C577.306 29.8472 576 31.1527 576 32.75C576 34.3472 577.306 35.6527 578.903 35.6527C580.5 35.6527 581.806 34.3472 581.806 32.75C581.806 31.1527 580.514 29.8472 578.903 29.8472Z" fill="#6515DD"/>
<path d="M614.639 4.5L596.361 10.3333V4.56944L576.653 10.8611V27.5694L593.653 22.1389V27.875L616 20.75L609.944 14.8333L614.639 4.5ZM593.653 19.2778L579.375 23.8333V12.8472L593.653 8.29167V19.2778ZM610.944 19.5139L596.361 24.1667V13.1944L609.792 8.90278L606.708 15.4028L610.944 19.5139Z" fill="#6515DD"/>
<g clip-path="url(#clip2_1_1680)">
<path fill-rule="evenodd" clip-rule="evenodd" d="M116 0C104.957 4.14414e-08 96 9.18239 96 20.5031C96 29.5597 101.767 37.2327 109.62 40C110.601 40.1258 110.969 39.4969 110.969 38.9938C110.969 38.4906 110.969 37.2327 110.969 35.4717C105.448 36.7296 104.221 32.7044 104.221 32.7044C103.362 30.3145 102.012 29.6855 102.012 29.6855C100.172 28.4276 102.135 28.4276 102.135 28.4276C104.098 28.5535 105.202 30.566 105.202 30.566C107.043 33.7108 109.865 32.8302 110.969 32.327C111.092 30.9434 111.705 30.0629 112.196 29.5597C107.779 29.0566 103.117 27.2956 103.117 19.3711C103.117 17.1069 103.853 15.3459 105.202 13.8365C105.08 13.4591 104.344 11.3208 105.448 8.55346C105.448 8.55346 107.166 8.05031 110.969 10.6918C112.564 10.1887 114.282 10.0629 116 10.0629C117.718 10.0629 119.436 10.3145 121.031 10.6918C124.834 8.05031 126.552 8.55346 126.552 8.55346C127.656 11.3208 126.92 13.4591 126.798 13.9622C128.025 15.3459 128.883 17.2327 128.883 19.4969C128.883 27.4214 124.221 29.0566 119.804 29.5597C120.54 30.1886 121.153 31.4465 121.153 33.3334C121.153 36.1006 121.153 38.239 121.153 38.9938C121.153 39.4969 121.521 40.1258 122.503 40C130.478 37.2327 136.123 29.5597 136.123 20.5031C136 9.18239 127.043 -4.14415e-08 116 0Z" fill="#FFFEF8"/>
</g>
<path d="M518.732 27.9817C519.22 28.6646 519.122 29.5427 518.537 30.0305C517.854 30.5183 516.878 30.4207 516.39 29.8354L512.976 25.4451L509.659 29.7378C509.171 30.4207 508.195 30.4207 507.512 29.9329C506.829 29.4451 506.732 28.5671 507.219 27.8841L511.122 22.811L507.219 17.7378C506.732 17.0549 506.927 16.0793 507.512 15.5915C508.195 15.1037 509.171 15.2988 509.659 15.8841L512.976 20.2744L516.39 16.0793C516.878 15.3963 517.756 15.2988 518.537 15.7866C519.219 16.2744 519.22 17.25 518.732 17.9329L514.927 22.9085L518.732 27.9817ZM500.976 27.3963C498.439 27.3963 496.39 25.4451 496.39 22.9085C496.39 20.4695 498.439 18.4207 500.976 18.4207C503.512 18.4207 505.561 20.4695 505.561 22.9085C505.463 25.4451 503.415 27.3963 500.976 27.3963ZM487.512 27.3963C484.976 27.3963 482.927 25.4451 482.927 22.9085C482.927 20.4695 484.976 18.4207 487.512 18.4207C490.049 18.4207 492.098 20.4695 492.098 22.9085C492.098 25.4451 490.049 27.3963 487.512 27.3963ZM500.976 15.4939C498.146 15.4939 495.61 17.0549 494.342 19.3963C493.073 17.0549 490.537 15.4939 487.61 15.4939C485.854 15.4939 484.293 16.0793 483.024 16.9573V10.7134C483.024 9.93293 482.341 9.25 481.561 9.25C480.683 9.25 480 9.93293 480 10.7134V23.0061C480.098 27.1037 483.415 30.3232 487.512 30.3232C490.439 30.3232 492.976 28.6646 494.244 26.3232C495.512 28.6646 498.049 30.3232 500.878 30.3232C505.073 30.3232 508.488 27.0061 508.488 22.811C508.585 18.811 505.171 15.4939 500.976 15.4939Z" fill="#0071F7"/>
<path d="M307.999 38.3417L315.368 15.6748H300.64L307.999 38.3417Z" fill="#E24329"/>
<path d="M290.319 15.6748L288.075 22.5613C287.872 23.1866 288.091 23.8769 288.627 24.2667L307.999 38.3416L290.319 15.6748Z" fill="#FCA326"/>
<path d="M290.319 15.675H300.64L296.198 2.02381C295.971 1.3254 294.98 1.3254 294.745 2.02381L290.319 15.675Z" fill="#E24329"/>
<path d="M325.689 15.6748L327.925 22.5613C328.128 23.1866 327.909 23.8769 327.373 24.2667L307.998 38.3416L325.689 15.6748Z" fill="#FCA326"/>
<path d="M325.689 15.675H315.368L319.802 2.02381C320.029 1.3254 321.02 1.3254 321.255 2.02381L325.689 15.675Z" fill="#E24329"/>
<path d="M307.998 38.3416L315.368 15.6748H325.689L307.998 38.3416Z" fill="#FC6D26"/>
<path d="M307.999 38.3416L290.319 15.6748H300.64L307.999 38.3416Z" fill="#FC6D26"/>
<defs>
<radialGradient id="paint0_radial_1_1680" cx="0" cy="0" r="1" gradientUnits="userSpaceOnUse" gradientTransform="translate(404.125 21.5847) scale(26.3397 24.3518)">
<stop stop-color="#FFB900"/>
<stop offset="0.6" stop-color="#F95D8F"/>
<stop offset="0.9991" stop-color="#F95353"/>
</radialGradient>
<clipPath id="clip0_1_1680">
<rect width="40" height="40" fill="white"/>
</clipPath>
<clipPath id="clip1_1_1680">
<rect width="40" height="40" fill="white" transform="translate(192)"/>
</clipPath>
<clipPath id="clip2_1_1680">
<rect width="40" height="40" fill="white" transform="translate(96)"/>
</clipPath>
</defs>
</svg>
