<svg width="40" height="40" viewBox="0 0 40 40" fill="none" xmlns="http://www.w3.org/2000/svg">
<g clip-path="url(#clip0_1_1686)">
<path d="M25.4566 12.8913L26.7392 12.913L30.2174 9.43478L30.3914 7.95652C27.6305 5.5 23.9783 4 20.0001 4C12.7827 4 6.69571 8.91304 4.89136 15.5652C5.28266 15.3043 6.08701 15.5 6.08701 15.5L13.0435 14.3478C13.0435 14.3478 13.4131 13.7609 13.587 13.7826C15.174 12.0435 17.4566 10.9565 20.0001 10.9565C22.0653 10.9565 23.9566 11.6739 25.4566 12.8913Z" fill="#EA4335"/>
<path d="M35.1088 15.5652C34.3044 12.587 32.6305 9.95654 30.3914 7.95654L25.4566 12.8913C27.4348 14.4783 28.6957 16.9131 28.6957 19.6522V20.5218C31.087 20.5218 33.0435 22.4783 33.0435 24.8696C33.0435 27.2609 31.087 29.2174 28.6957 29.2174H20.0001L19.1305 30.087V35.3044L20.0001 36.1739H28.6957C34.9348 36.1739 40.0001 31.1087 40.0001 24.8696C40.0001 21.0218 38.0653 17.6087 35.1088 15.5652Z" fill="#4285F4"/>
<path d="M11.3044 36.1736H20V29.217H11.3044C10.6739 29.217 10.0652 29.0649 9.52175 28.8257L8.26088 29.217L4.78262 32.6953L4.47827 33.8692C6.36958 35.304 8.73914 36.1736 11.3044 36.1736Z" fill="#34A853"/>
<path d="M11.3043 13.5654C5.06522 13.5654 0 18.6306 0 24.8697C0 28.5436 1.76087 31.8045 4.47826 33.8697L9.52174 28.8263C8 28.1523 6.95652 26.6306 6.95652 24.8697C6.95652 22.4784 8.91304 20.5219 11.3043 20.5219C13.0652 20.5219 14.587 21.5654 15.2609 23.0871L20.3043 18.0436C18.2391 15.3263 14.9783 13.5654 11.3043 13.5654Z" fill="#FBBC05"/>
</g>
<defs>
<clipPath id="clip0_1_1686">
<rect width="40" height="40" fill="white"/>
</clipPath>
</defs>
</svg>
