<svg width="64" height="64" viewBox="0 0 64 64" fill="none" xmlns="http://www.w3.org/2000/svg">
<path d="M12.6724 46.2304C14.8692 41.8095 16.0089 36.9388 16.0017 32.0022C15.9994 29.6032 16.5376 27.2346 17.5763 25.0722C18.615 22.9098 20.1276 21.0091 22.0016 19.5115" stroke="#1CFFE4" stroke-linecap="round" stroke-linejoin="round"/>
<path d="M32.0017 32.0022C32.0143 40.1344 29.9513 48.1352 26.0078 55.2473" stroke="#1CFFE4" stroke-linecap="round" stroke-linejoin="round"/>
<path d="M24.0015 32.0022C24.0015 29.8805 24.8443 27.8456 26.3446 26.3453C27.8449 24.8451 29.8797 24.0022 32.0015 24.0022C34.1232 24.0022 36.158 24.8451 37.6583 26.3453C39.1586 27.8456 40.0015 29.8805 40.0015 32.0022C40.0132 40.2481 38.1966 48.3941 34.6827 55.8538" stroke="#1CFFE4" stroke-linecap="round" stroke-linejoin="round"/>
<path d="M54.6412 46.0022C55.5482 41.3908 56.0038 36.702 56.0014 32.0022C56.0014 25.637 53.4728 19.5325 48.972 15.0316C44.4711 10.5308 38.3666 8.0022 32.0014 8.0022C25.6362 8.0022 19.5317 10.5308 15.0308 15.0316C10.53 19.5325 8.00141 25.637 8.00141 32.0022C8.00439 34.7271 7.54255 37.4326 6.63574 40.0023" stroke="#1CFFE4" stroke-linecap="round" stroke-linejoin="round"/>
<path d="M23.2015 40.0022C22.3477 44.2076 20.8183 48.247 18.6729 51.9634" stroke="#1CFFE4" stroke-linecap="round" stroke-linejoin="round"/>
<path d="M30.0015 16.126C32.2534 15.8443 34.5396 16.0446 36.7083 16.7135C38.877 17.3824 40.8787 18.5047 42.5808 20.0059C44.2829 21.5072 45.6464 23.3531 46.5809 25.4213C47.5154 27.4895 47.9997 29.7327 48.0015 32.0022C48.0021 34.6765 47.8367 37.3483 47.5063 40.0021" stroke="#1CFFE4" stroke-linecap="round" stroke-linejoin="round"/>
<path d="M45.9852 48.002C45.6044 49.4817 45.1726 50.94 44.6899 52.377" stroke="#1CFFE4" stroke-linecap="round" stroke-linejoin="round"/>
</svg>
