<svg width="64" height="64" viewBox="0 0 64 64" fill="none" xmlns="http://www.w3.org/2000/svg">
<path d="M23.292 30.7082C21.7503 26.8626 21.5836 22.6026 22.8202 18.6484C24.0567 14.6941 26.6207 11.288 30.0786 9.0059C33.5366 6.72379 37.6764 5.70561 41.7984 6.12347C45.9204 6.54132 49.7717 8.36958 52.7013 11.2992C55.6309 14.2288 57.4592 18.0801 57.877 22.2021C58.2949 26.3241 57.2767 30.464 54.9946 33.9219C52.7125 37.3799 49.3064 39.9438 45.3521 41.1803C41.3978 42.4169 37.1378 42.2502 33.2923 40.7084L33.2924 40.7081L30.0005 44H24.0005V50H18.0005V56H8.00049V46L23.2925 30.708L23.292 30.7082Z" stroke="#1CFFE4" stroke-linecap="round" stroke-linejoin="round"/>
<path opacity="0.5" d="M45 20C45.5523 20 46 19.5523 46 19C46 18.4477 45.5523 18 45 18C44.4477 18 44 18.4477 44 19C44 19.5523 44.4477 20 45 20Z" stroke="#1CFFE4" stroke-width="0.03125" stroke-linecap="round" stroke-linejoin="round"/>
<path d="M45 21C46.1046 21 47 20.1046 47 19C47 17.8954 46.1046 17 45 17C43.8954 17 43 17.8954 43 19C43 20.1046 43.8954 21 45 21Z" fill="#1CFFE4"/>
</svg>
