<svg width="115" height="48" viewBox="0 0 115 48" fill="none" xmlns="http://www.w3.org/2000/svg">
<g clip-path="url(#clip0_1_1079)">
<path d="M36.8719 8.83794H2.45845V2.45814H36.8719V8.83794ZM39.3304 0H0V11.2948H39.3304V0Z" fill="white"/>
<path d="M2.45844 29.9626H0V18.6678H2.45844V23.1312H6.85091V18.6678H9.30935V29.9626H6.85091V25.2819H2.45844V29.9626Z" fill="white"/>
<path d="M13.0326 25.0108H15.9609C15.9064 24.1802 15.5635 23.6012 14.6051 23.6012C13.882 23.6012 13.2492 23.909 13.0326 25.0108ZM14.8942 30.1436C12.3999 30.1436 10.7012 28.5711 10.7012 25.988C10.7012 23.475 12.364 21.7404 14.5692 21.7404C16.9731 21.7404 18.1661 23.3488 18.1661 25.7526V26.6565H13.0326C13.3225 27.9025 14.2981 28.2275 15.2744 28.2275C16.1238 28.2275 16.7378 28.0475 17.4968 27.5768H17.5879V29.4384C16.9373 29.909 16.0147 30.1436 14.8942 30.1436Z" fill="white"/>
<path d="M24.5816 25.2281L23.3161 29.9626H21.1655L18.707 22.0107V21.9203H21.0572L22.3943 26.6736L23.6598 21.9203H25.5759L26.8592 26.6736L28.2151 21.9203H30.4748V22.0107L28.0164 29.9626H25.865L24.5816 25.2281Z" fill="white"/>
<path d="M34.4682 30.1436C32.5163 30.1436 31.7207 29.3667 31.7207 27.5417V18.6688H34.1067V27.3789C34.1067 27.9391 34.3233 28.1378 34.7932 28.1378C34.956 28.1378 35.1914 28.0841 35.3355 28.0295H35.3721V29.9994C35.1734 30.0711 34.8298 30.1436 34.4682 30.1436Z" fill="white"/>
<path d="M38.3734 25.0108H41.3017C41.2472 24.1802 40.9043 23.6012 39.9459 23.6012C39.2235 23.6012 38.59 23.909 38.3734 25.0108ZM40.235 30.1436C37.7407 30.1436 36.042 28.5711 36.042 25.988C36.042 23.475 37.7048 21.7404 39.91 21.7404C42.3139 21.7404 43.5069 23.3488 43.5069 25.7526V26.6565H38.3734C38.6625 27.9025 39.6389 28.2275 40.6145 28.2275C41.4646 28.2275 42.0786 28.0475 42.8383 27.5768H42.9287V29.4384C42.2781 29.909 41.3563 30.1436 40.235 30.1436Z" fill="white"/>
<path d="M53.3032 21.9205H55.0743V23.8358H53.3032V27.107C53.3032 27.8122 53.5743 28.1379 54.2975 28.1379C54.4962 28.1379 54.7494 28.1192 55.0206 28.0288H55.0743V29.9083C54.7673 30.0174 54.2975 30.1428 53.611 30.1428C51.6762 30.1428 50.9172 29.2576 50.9172 27.2153V23.8358H47.8627V27.107C47.8627 27.8122 48.1338 28.1379 48.8562 28.1379C49.0556 28.1379 49.3089 28.1192 49.5801 28.0288H49.6338V29.9083C49.3268 30.0174 48.8562 30.1428 48.1704 30.1428C46.2356 30.1428 45.4767 29.2576 45.4767 27.2153V23.8358H44.2471V21.9205H45.4767V19.7161H47.8627V21.9205H50.9172V19.7161H53.3032V21.9205Z" fill="white"/>
<path d="M63.113 24.2159C64.3613 24.2159 64.9566 23.5115 64.9566 22.4993C64.9566 21.4504 64.3613 20.746 63.113 20.746H61.5584V24.2159H63.113ZM67.4517 22.4993C67.4517 24.9577 65.8067 26.2941 63.3117 26.2941H61.5584V29.9626H59.1016V18.6678H63.3117C65.8067 18.6678 67.4517 20.005 67.4517 22.4993Z" fill="white"/>
<path d="M72.6942 27.4328V26.7464C72.3326 26.5484 71.8636 26.476 71.375 26.476C70.5981 26.476 70.1282 26.7643 70.1282 27.4149C70.1282 28.0843 70.5981 28.3734 71.3025 28.3734C71.9711 28.3734 72.4776 28.0297 72.6942 27.4328ZM72.7667 29.1682C72.2423 29.8009 71.4662 30.1079 70.6332 30.1079C69.0615 30.1079 67.7773 29.151 67.7773 27.4508C67.7773 25.8791 69.0615 24.831 70.9043 24.831C71.4825 24.831 72.0802 24.9214 72.6942 25.1014V24.958C72.6942 24.09 72.2064 23.7113 70.9238 23.7113C70.1095 23.7113 69.3327 23.9451 68.6633 24.3253H68.5737V22.4092C69.1877 22.0484 70.2732 21.7406 71.3384 21.7406C73.761 21.7406 75.0802 22.897 75.0802 24.9214V29.963H72.7667V29.1682Z" fill="white"/>
<path d="M76.29 25.9513C76.29 23.3667 78.1165 21.7404 80.5025 21.7404C81.3519 21.7404 82.1467 21.9212 82.7436 22.3545V24.3968H82.6524C82.128 23.9994 81.5139 23.7641 80.8095 23.7641C79.6165 23.7641 78.7126 24.5784 78.7126 25.9513C78.7126 27.3243 79.6165 28.1199 80.8095 28.1199C81.5139 28.1199 82.128 27.8846 82.6524 27.4864H82.7436V29.5287C82.1467 29.9628 81.3519 30.1436 80.5025 30.1436C78.1165 30.1436 76.29 28.536 76.29 25.9513Z" fill="white"/>
<path d="M86.6293 26.3128V29.9626H84.2441V18.6678H86.6293V25.1011L89.034 21.9203H91.7449V22.0107L88.8532 25.6613L91.7449 29.8723V29.9626H89.0153L86.6293 26.3128Z" fill="white"/>
<path d="M97.0948 27.4328V26.7464C96.734 26.5484 96.2634 26.476 95.7756 26.476C94.9987 26.476 94.5288 26.7643 94.5288 27.4149C94.5288 28.0843 94.9987 28.3734 95.7024 28.3734C96.3725 28.3734 96.8782 28.0297 97.0948 27.4328ZM97.1673 29.1682C96.6429 29.8009 95.8652 30.1079 95.0346 30.1079C93.4613 30.1079 92.1787 29.151 92.1787 27.4508C92.1787 25.8791 93.4613 24.831 95.3065 24.831C95.8847 24.831 96.48 24.9214 97.0948 25.1014V24.958C97.0948 24.09 96.607 23.7113 95.3237 23.7113C94.5109 23.7113 93.7325 23.9451 93.0639 24.3253H92.9735V22.4092C93.5883 22.0484 94.673 21.7406 95.739 21.7406C98.1624 21.7406 99.4816 22.897 99.4816 24.9214V29.963H97.1673V29.1682Z" fill="white"/>
<path d="M103.493 23.2217C103.926 22.3357 104.56 21.83 105.446 21.83C105.771 21.83 106.096 21.9025 106.221 21.975V24.2518H106.132C105.86 24.1427 105.536 24.0711 105.084 24.0711C104.343 24.0711 103.764 24.5051 103.565 25.3357V29.9627H101.18V21.9204H103.493V23.2217Z" fill="white"/>
<path d="M112.549 27.2339V24.6493C112.152 24.0711 111.628 23.8186 111.031 23.8186C109.983 23.8186 109.278 24.5784 109.278 25.9513C109.278 27.3243 109.983 28.0654 111.031 28.0654C111.628 28.0654 112.152 27.8121 112.549 27.2339ZM112.621 29.1321C112.115 29.7828 111.32 30.1436 110.236 30.1436C108.175 30.1436 106.855 28.2649 106.855 25.9513C106.855 23.6378 108.175 21.7404 110.236 21.7404C111.284 21.7404 112.043 22.0662 112.549 22.6623V18.6688H114.935V29.9628H112.621V29.1321Z" fill="white"/>
<path d="M0 33.6519H6.97714V35.0249H1.57247V38.476H6.47065V39.814H1.57247V43.5729H6.97714V44.9459H0V33.6519Z" fill="white"/>
<path d="M12.7434 36.8318C14.5325 36.8318 15.5268 38.0068 15.5268 39.9393V44.9458H14.0268V39.9759C14.0268 38.9458 13.5024 38.2048 12.3639 38.2048C11.4242 38.2048 10.6286 38.8016 10.3574 39.6502V44.9458H8.85742V36.9946H10.3574V38.151C10.8273 37.41 11.6229 36.8318 12.7434 36.8318Z" fill="white"/>
<path d="M19.5574 36.9941H21.5997V38.2775H19.5574V42.5601C19.5574 43.4632 20.0272 43.771 20.8766 43.771C21.1111 43.771 21.3644 43.7352 21.5452 43.6627H21.5997V44.9453C21.3831 45.0357 21.0753 45.1082 20.66 45.1082C18.7976 45.1082 18.0574 44.258 18.0574 42.705V38.2775H16.6836V36.9941H18.0574V34.8809H19.5574V36.9941Z" fill="white"/>
<path d="M24.1131 40.192H28.0716C28.0178 39.0178 27.4389 38.1146 26.21 38.1146C25.0716 38.1146 24.3298 38.964 24.1131 40.192ZM26.4812 45.1082C24.149 45.1082 22.5586 43.5536 22.5586 41.0601C22.5586 38.5658 24.0407 36.8313 26.1921 36.8313C28.3794 36.8313 29.5178 38.4037 29.5178 40.7344V41.4217H24.0586C24.2215 43.03 25.2524 43.8069 26.6799 43.8069C27.5659 43.8069 28.1978 43.6082 28.903 43.0837H28.9576V44.4037C28.3069 44.9095 27.4568 45.1082 26.4812 45.1082Z" fill="white"/>
<path d="M32.7881 38.2235C33.1317 37.3741 33.8915 36.8684 34.758 36.8684C35.1024 36.8684 35.4094 36.9222 35.5356 36.9946V38.4759H35.4819C35.2645 38.3684 34.9029 38.3138 34.5413 38.3138C33.7286 38.3138 33.0413 38.8554 32.7881 39.7593V44.9458H31.2881V36.9946H32.7881V38.2235Z" fill="white"/>
<path d="M40.3798 43.7527C41.8619 43.7527 42.7299 42.5784 42.7299 40.9693C42.7299 39.3797 41.8619 38.1875 40.3798 38.1875C39.5663 38.1875 38.8074 38.6753 38.41 39.4514V42.5067C38.8074 43.2828 39.5663 43.7527 40.3798 43.7527ZM40.6331 36.8317C43.0003 36.8317 44.2658 38.7657 44.2658 40.9693C44.2658 43.1753 43.0003 45.1086 40.6331 45.1086C39.6567 45.1086 38.8253 44.6028 38.41 44.0597V48.0002H36.9092V36.9945H38.41V37.8976C38.8253 37.3374 39.6567 36.8317 40.6331 36.8317Z" fill="white"/>
<path d="M47.5371 38.2235C47.88 37.3741 48.6397 36.8684 49.507 36.8684C49.8506 36.8684 50.1576 36.9222 50.2839 36.9946V38.4759H50.2301C50.0135 38.3684 49.6519 38.3138 49.2904 38.3138C48.4769 38.3138 47.7904 38.8554 47.5371 39.7593V44.9458H46.0371V36.9946H47.5371V38.2235Z" fill="white"/>
<path d="M52.4536 33.7773C52.978 33.7773 53.4112 34.1926 53.4112 34.717C53.4112 35.2414 52.978 35.6567 52.4536 35.6567C51.9478 35.6567 51.4951 35.2414 51.4951 34.717C51.4951 34.1926 51.9478 33.7773 52.4536 33.7773Z" fill="white"/>
<path d="M51.7119 44.9451H53.2127V36.9939H51.7119V44.9451Z" fill="white"/>
<path d="M58.5632 40.3011C59.7016 40.6619 60.9663 41.1318 60.9663 42.6497C60.9663 44.2767 59.629 45.1082 57.9124 45.1082C56.8636 45.1082 55.8156 44.8549 55.2188 44.385V42.9575H55.2911C55.9605 43.5715 56.954 43.8427 57.8937 43.8427C58.7431 43.8427 59.5028 43.517 59.5028 42.8305C59.5028 42.1261 58.871 41.9632 57.6226 41.5479C56.5021 41.1863 55.2554 40.7702 55.2554 39.271C55.2554 37.7344 56.52 36.8313 58.1291 36.8313C59.0689 36.8313 59.9003 37.03 60.5689 37.4819V38.9282H60.515C59.8651 38.4037 59.1047 38.0959 58.165 38.0959C57.2252 38.0959 56.7008 38.512 56.7008 39.0723C56.7008 39.705 57.279 39.885 58.5632 40.3011Z" fill="white"/>
<path d="M63.8231 40.192H67.7808C67.727 39.0178 67.1488 38.1146 65.9192 38.1146C64.7808 38.1146 64.0397 38.964 63.8231 40.192ZM66.1904 45.1082C63.8589 45.1082 62.2686 43.5536 62.2686 41.0601C62.2686 38.5658 63.7506 36.8313 65.9013 36.8313C68.0893 36.8313 69.227 38.4037 69.227 40.7344V41.4217H63.7686C63.9314 43.03 64.9615 43.8069 66.3891 43.8069C67.2758 43.8069 67.9078 43.6082 68.6122 43.0837H68.6668V44.4037C68.0169 44.9095 67.1667 45.1082 66.1904 45.1082Z" fill="white"/>
</g>
<defs>
<clipPath id="clip0_1_1079">
<rect width="115" height="48" fill="white"/>
</clipPath>
</defs>
</svg>
