<svg width="128" height="32" viewBox="0 0 128 32" fill="none" xmlns="http://www.w3.org/2000/svg">
<path fill-rule="evenodd" clip-rule="evenodd" d="M5.34705 2.25235e-07H26.6529C28.0713 -0.000411169 29.4319 0.562755 30.4349 1.56557C31.438 2.56838 32.0016 3.92865 32.0016 5.34705V26.6513C32.0016 29.6054 29.6068 32 26.6529 32H5.34705C2.3937 31.9991 0 29.6048 0 26.6513V5.34705C0 2.39395 2.39395 2.25235e-07 5.34705 2.25235e-07ZM24.4995 26.1825C25.4316 26.1825 26.1872 25.4269 26.1872 24.4948L26.1825 7.50666C26.1825 6.5746 25.4269 5.81903 24.4948 5.81903H7.50822C7.06036 5.81903 6.63087 5.99705 6.31433 6.31388C5.99779 6.63071 5.82017 7.06036 5.82058 7.50822V24.4948C5.82058 25.4269 6.57616 26.1825 7.50822 26.1825H24.4995Z" fill="black"/>
<path d="M12.6056 20.3388C12.0736 20.3346 11.6445 19.9022 11.6445 19.3701V12.5884C11.6433 12.3307 11.7448 12.0831 11.9267 11.9004C12.1085 11.7177 12.3556 11.615 12.6133 11.615H19.4043C19.6619 11.6154 19.9088 11.7182 20.0906 11.9008C20.2723 12.0835 20.3739 12.3308 20.3731 12.5884V19.3685C20.3739 19.6261 20.2723 19.8735 20.0906 20.0561C19.9088 20.2387 19.6619 20.3416 19.4043 20.342L12.6056 20.3388Z" fill="black"/>
<path d="M48.2852 14.5736C47.2946 14.3035 46.3569 14.0489 45.6287 13.7244C44.2811 13.122 43.6539 12.2867 43.6539 11.0974C43.6539 8.84932 45.8274 7.83705 47.9918 7.83705C50.0488 7.83705 51.8452 8.68786 53.0516 10.2311L53.1338 10.3367L54.8727 8.97664L54.7889 8.87107C53.1851 6.83099 50.8097 5.71313 48.0972 5.71313C46.2917 5.71313 44.6366 6.20064 43.4396 7.08716C42.092 8.07303 41.3809 9.50295 41.3809 11.2092C41.3809 15.1761 45.1163 16.1432 48.1191 16.9211C51.1575 17.7223 53.019 18.3309 53.019 20.6472C53.019 22.928 51.1745 24.4014 48.3208 24.4014C46.9096 24.4014 44.2967 24.0273 42.654 21.5184L42.578 21.4002L40.749 22.7246L40.8204 22.8318C42.373 25.1824 45.0527 26.5316 48.1812 26.5316C52.4305 26.5316 55.2872 24.1328 55.2872 20.565C55.2872 16.4817 51.4027 15.4244 48.2852 14.5736Z" fill="black"/>
<path fill-rule="evenodd" clip-rule="evenodd" d="M69.1477 13.7497V11.6025H71.1923V31.9971H69.1477V24.0293C67.9801 25.63 66.2289 26.5056 64.1701 26.5056C60.2825 26.5056 57.5654 23.3928 57.5654 18.8981C57.5654 14.4034 60.2886 11.2656 64.1701 11.2656C66.2149 11.2656 67.9662 12.1459 69.1477 13.7497ZM59.7205 18.8732C59.7205 23.0341 62.1036 24.5168 64.3346 24.5168L64.3392 24.5183C67.2597 24.5183 69.1477 22.2826 69.1477 18.8732C69.1477 15.4637 67.2566 13.2591 64.3346 13.2591C60.933 13.2591 59.7205 16.1593 59.7205 18.8732Z" fill="black"/>
<path d="M84.7107 11.6023V19.6523C84.7107 22.4703 82.7808 24.5166 80.1227 24.5166C77.915 24.5166 76.8407 23.2062 76.8407 20.5125V11.6023H74.7959V20.9301C74.7959 24.4234 76.6947 26.5084 79.8743 26.5084C81.8554 26.5084 83.5571 25.6686 84.7121 24.133V26.1762H86.7569V11.6023H84.7107Z" fill="black"/>
<path fill-rule="evenodd" clip-rule="evenodd" d="M90.6086 13.1329C92.1161 11.9482 94.1623 11.2698 96.2195 11.2698C99.4691 11.2698 101.408 12.886 101.402 15.5968V26.1792H99.3558V24.5629C98.3232 25.8561 96.8297 26.5114 94.9076 26.5114C91.776 26.5114 89.8291 24.7988 89.8291 22.0446C89.8291 18.4628 93.2044 17.9008 94.6422 17.6616C94.8765 17.6229 95.1187 17.5857 95.3607 17.5483H95.361L95.3697 17.547C97.3341 17.2446 99.3619 16.9326 99.3619 15.2661C99.3619 13.3797 96.9135 13.2338 96.1636 13.2338C94.8393 13.2338 92.9684 13.6266 91.6969 14.7288L91.5805 14.8298L90.5123 13.2089L90.6086 13.1329ZM91.9639 21.9297C91.9639 24.2648 94.1623 24.5178 95.1079 24.5178H95.1094C97.1651 24.5178 99.3651 23.4218 99.3604 20.3415V18.233C98.3631 18.8629 96.9436 19.109 95.6774 19.3285L95.656 19.3323L95.0209 19.4456C92.9933 19.8213 91.9639 20.3057 91.9639 21.9297Z" fill="black"/>
<path d="M113.247 11.8767C112.761 11.5305 111.995 11.324 111.197 11.324C109.557 11.3455 108.023 12.1361 107.053 13.4588V11.5957H105.009V26.1681H107.053V18.3742C107.053 14.9182 108.996 13.3703 110.919 13.3703C111.482 13.3627 112.04 13.481 112.551 13.7165L112.689 13.7895L113.337 11.9357L113.247 11.8767Z" fill="black"/>
<path fill-rule="evenodd" clip-rule="evenodd" d="M113.847 18.9285C113.847 14.4199 116.658 11.2698 120.678 11.2698C124.55 11.2698 127.256 14.0659 127.248 18.0762C127.247 18.4248 127.228 18.773 127.191 19.1195L127.178 19.2391H116C116.051 22.4482 117.983 24.5178 120.946 24.5178C122.645 24.5178 124.117 23.827 125.09 22.5709L125.179 22.4561L126.66 23.7757L126.578 23.875C125.593 25.0752 123.799 26.5067 120.833 26.5067C116.657 26.5067 113.847 23.4621 113.847 18.9285ZM120.622 13.2322C118.124 13.2322 116.352 14.8763 116.076 17.4366H125.087C124.91 15.3778 123.653 13.2322 120.622 13.2322Z" fill="black"/>
</svg>
