<svg width="151" height="48" viewBox="0 0 151 48" fill="none" xmlns="http://www.w3.org/2000/svg">
<path d="M79.5795 12.0601C79.5795 13.7898 78.2115 15.1832 76.5132 15.1832C74.815 15.1832 73.447 13.7898 73.447 12.0601C73.447 10.3303 74.7679 8.93694 76.5132 8.93694C78.2586 8.98498 79.5795 10.3784 79.5795 12.0601ZM66.9372 18.3544C66.9372 18.6426 66.9372 19.1231 66.9372 19.1231C66.9372 19.1231 65.4748 17.2012 62.3614 17.2012C57.2196 17.2012 53.2099 21.1892 53.2099 26.7147C53.2099 32.1922 57.1724 36.2282 62.3614 36.2282C65.522 36.2282 66.9372 34.2583 66.9372 34.2583V35.0751C66.9372 35.4595 67.2202 35.7477 67.5976 35.7477H71.4186V17.6817C71.4186 17.6817 67.9278 17.6817 67.5976 17.6817C67.2202 17.6817 66.9372 18.018 66.9372 18.3544ZM66.9372 29.9339C66.2296 30.991 64.8144 31.9039 63.1162 31.9039C60.0971 31.9039 57.7857 29.982 57.7857 26.7147C57.7857 23.4474 60.0971 21.5255 63.1162 21.5255C64.7672 21.5255 66.2768 22.4865 66.9372 23.4955V29.9339ZM74.249 17.6817H78.7775V35.7477H74.249V17.6817ZM141.895 17.2012C138.781 17.2012 137.319 19.1231 137.319 19.1231V8.98499H132.79V35.7477C132.79 35.7477 136.281 35.7477 136.611 35.7477C136.989 35.7477 137.272 35.4114 137.272 35.0751V34.2583C137.272 34.2583 138.734 36.2282 141.848 36.2282C146.989 36.2282 150.999 32.1922 150.999 26.7147C150.999 21.2372 146.989 17.2012 141.895 17.2012ZM141.14 31.8559C139.395 31.8559 138.027 30.9429 137.319 29.8859V23.4474C138.027 22.4865 139.536 21.4775 141.14 21.4775C144.159 21.4775 146.47 23.3994 146.47 26.6667C146.47 29.9339 144.159 31.8559 141.14 31.8559ZM130.432 25.033V35.7958H125.903V25.5616C125.903 22.5826 124.96 21.3814 122.412 21.3814C121.044 21.3814 119.629 22.1021 118.733 23.1592V35.7477H114.204V17.6817H117.789C118.167 17.6817 118.45 18.018 118.45 18.3544V19.1231C119.771 17.7297 121.516 17.2012 123.261 17.2012C125.243 17.2012 126.894 17.7778 128.215 18.9309C129.818 20.2763 130.432 22.006 130.432 25.033ZM103.213 17.2012C100.1 17.2012 98.6373 19.1231 98.6373 19.1231V8.98499H94.1087V35.7477C94.1087 35.7477 97.5995 35.7477 97.9297 35.7477C98.3071 35.7477 98.5901 35.4114 98.5901 35.0751V34.2583C98.5901 34.2583 100.052 36.2282 103.166 36.2282C108.308 36.2282 112.317 32.1922 112.317 26.7147C112.365 21.2372 108.355 17.2012 103.213 17.2012ZM102.458 31.8559C100.713 31.8559 99.3449 30.9429 98.6373 29.8859V23.4474C99.3449 22.4865 100.854 21.4775 102.458 21.4775C105.477 21.4775 107.789 23.3994 107.789 26.6667C107.789 29.9339 105.477 31.8559 102.458 31.8559ZM90.1933 17.2012C91.5614 17.2012 92.2689 17.4414 92.2689 17.4414V21.7177C92.2689 21.7177 88.4951 20.4204 86.1365 23.1592V35.7958H81.6079V17.6817C81.6079 17.6817 85.0987 17.6817 85.4289 17.6817C85.8063 17.6817 86.0893 18.018 86.0893 18.3544V19.1231C86.9384 18.1141 88.7782 17.2012 90.1933 17.2012ZM43.1621 34.1141C42.9263 33.5375 42.6904 32.9129 42.4545 32.3844C42.0771 31.5195 41.6998 30.7027 41.3695 29.9339L41.3224 29.8859C38.0675 22.6787 34.5767 15.3754 30.8972 8.16817L30.7557 7.87988C30.3783 7.15916 30.0009 6.39039 29.6235 5.62162C29.1518 4.75676 28.6801 3.84384 27.9253 2.97898C26.4158 1.05706 24.2458 0 21.9344 0C19.5757 0 17.453 1.05706 15.8963 2.88288C15.1887 3.74775 14.6698 4.66066 14.198 5.52553C13.8207 6.29429 13.4433 7.06306 13.0659 7.78378L12.9244 8.07207C9.29208 15.2793 5.75412 22.5826 2.4992 29.7898L2.45203 29.8859C2.12182 30.6547 1.74444 31.4715 1.36706 32.3363C1.13119 32.8649 0.89533 33.4414 0.659467 34.0661C0.046221 35.8438 -0.14247 37.5255 0.0933937 39.2553C0.612294 42.8589 2.97093 45.8859 6.22585 47.2312C7.45234 47.7598 8.72601 48 10.0468 48C10.4242 48 10.896 47.952 11.2733 47.9039C12.83 47.7117 14.4339 47.1832 15.9906 46.2703C17.9247 45.1652 19.7644 43.5796 21.84 41.2733C23.9156 43.5796 25.8025 45.1652 27.6895 46.2703C29.2462 47.1832 30.85 47.7117 32.4067 47.9039C32.7841 47.952 33.2558 48 33.6332 48C34.9541 48 36.2749 47.7598 37.4542 47.2312C40.7563 45.8859 43.0678 42.8108 43.5867 39.2553C43.9641 37.5736 43.7754 35.8919 43.1621 34.1141ZM21.8872 36.6126C19.3399 33.3453 17.6888 30.2703 17.1228 27.6757C16.8869 26.5706 16.8397 25.6096 16.9812 24.7447C17.0756 23.976 17.3586 23.3033 17.736 22.7267C18.6323 21.4294 20.1418 20.6126 21.8872 20.6126C23.6326 20.6126 25.1893 21.3814 26.0384 22.7267C26.4158 23.3033 26.6988 23.976 26.7932 24.7447C26.9347 25.6096 26.8875 26.6186 26.6517 27.6757C26.0856 30.2222 24.4345 33.2973 21.8872 36.6126ZM40.7091 38.8709C40.3789 41.3694 38.7279 43.5315 36.4164 44.4925C35.2843 44.973 34.0578 45.1171 32.8313 44.973C31.652 44.8288 30.4726 44.4444 29.2462 43.7237C27.5479 42.7628 25.8497 41.2733 23.8685 39.0631C26.9819 35.1712 28.8688 31.6156 29.5764 28.4444C29.9066 26.955 29.9537 25.6096 29.8122 24.3604C29.6235 23.1592 29.199 22.0541 28.5386 21.0931C27.0762 18.9309 24.6232 17.6817 21.8872 17.6817C19.1512 17.6817 16.6982 18.979 15.2358 21.0931C14.5754 22.0541 14.1509 23.1592 13.9622 24.3604C13.7735 25.6096 13.8207 27.003 14.198 28.4444C14.9056 31.6156 16.8397 35.2192 19.9059 39.1111C17.9719 41.3213 16.2265 42.8108 14.5283 43.7718C13.3018 44.4925 12.1224 44.8769 10.9431 45.021C9.66946 45.1652 8.44297 44.973 7.358 44.5405C5.04653 43.5796 3.39549 41.4174 3.06528 38.9189C2.92376 37.7177 3.0181 36.5165 3.48983 35.1712C3.63135 34.6907 3.86721 34.2102 4.10308 33.6336C4.43329 32.8649 4.81067 32.048 5.18805 31.2312L5.23522 31.1351C8.49014 23.976 11.9809 16.6727 15.6132 9.56156L15.7547 9.27327C16.1321 8.55255 16.5095 7.78378 16.8869 7.06306C17.2643 6.29429 17.6888 5.57357 18.2077 4.94895C19.1984 3.7958 20.5192 3.17117 21.9816 3.17117C23.4439 3.17117 24.7647 3.7958 25.7554 4.94895C26.2743 5.57357 26.6988 6.29429 27.0762 7.06306C27.4536 7.78378 27.831 8.55255 28.2084 9.27327L28.3499 9.56156C31.935 16.7207 35.4258 24.024 38.6807 31.1832V31.2312C39.0581 32 39.3883 32.8649 39.7657 33.6336C40.0015 34.2102 40.2374 34.6907 40.3789 35.1712C40.7563 36.4204 40.8978 37.6216 40.7091 38.8709Z" fill="white"/>
</svg>
